# xmcd
# 
# Track frame offsets:
#     150
#     27153
#     41160
#     54489
#     69307
#     89294
#     120680
#     139692
#     156214
#     174007
#     188511
#     196935
#     218492
# 
# Disc length: 3605
# 
# Revision: 3
# Processed by: cddbd v1.5.2PL0 Copyright (c) Steve Scherf et al.
# Submitted via: fre:ac v1.0.17
# 
DISCID=a40e130d
DTITLE=$olal - The Moonshine Sessions
DYEAR=2007
DGENRE=Country
TTITLE0=The academy of trust
TTITLE1=Luna's song
TTITLE2=The roads to nowhere
TTITLE3=Psycho girls and psycow boys
TTITLE4=I lost him
TTITLE5=Fade away
TTITLE6=Always alone
TTITLE7=Dancing queen
TTITLE8=The private song
TTITLE9=Pretty vacant
TTITLE10=I'm rollin'
TTITLE11=Seven guns and seven holes
TTITLE12=<untitled bonus>
EXTD=
EXTT0=
EXTT1=
EXTT2=
EXTT3=
EXTT4=
EXTT5=
EXTT6=
EXTT7=
EXTT8=
EXTT9=
EXTT10=
EXTT11=
EXTT12=
PLAYORDER=
